<mxfile host="Electron" modified="2025-08-07T15:24:22.840Z" agent="5.0 (Windows NT 10.0; Win64; x64) AppleWebKit/537.36 (KHTML, like Gecko) draw.io/20.3.0 Chrome/104.0.5112.114 Electron/20.1.3 Safari/537.36" etag="aBStE286iwZwjlefF9-0" compressed="false" version="20.3.0" type="device">
  <diagram name="PE010A" id="X5tRL1QPFuB2Il9UEIbj">
    <mxGraphModel dx="1422" dy="977" grid="1" gridSize="2" guides="1" tooltips="1" connect="1" arrows="1" fold="1" page="1" pageScale="1" pageWidth="1169" pageHeight="827" math="0" shadow="0">
      <root>
        <mxCell id="FXZ0acjRom5HCQV_QIXH-0" />
        <mxCell id="FXZ0acjRom5HCQV_QIXH-131" value="Label" style="locked=1;" parent="FXZ0acjRom5HCQV_QIXH-0" />
        <object label="%LabelLines%&amp;nbsp; &amp;nbsp; &amp;nbsp; &amp;nbsp; &amp;nbsp; &amp;nbsp;%LabelIndex%" placeholders="1" LabelLines="1" LabelIndex="A" id="FXZ0acjRom5HCQV_QIXH-132">
          <mxCell style="rounded=0;whiteSpace=wrap;html=1;fillColor=none;strokeColor=#FF0000;fontColor=#FF0000;fontSize=10;align=left;noLabel=0;" parent="FXZ0acjRom5HCQV_QIXH-131" vertex="1">
            <mxGeometry x="424" y="416" width="80" height="16" as="geometry" />
          </mxCell>
        </object>
        <object label="Symbol" Width="32" Height="32" UoM="mm" id="FXZ0acjRom5HCQV_QIXH-135">
          <mxCell style="" parent="FXZ0acjRom5HCQV_QIXH-0" />
        </object>
        <mxCell id="lfd4ERR9KzfVwueqH8c_-0" value="" style="rounded=0;whiteSpace=wrap;html=1;fillColor=none;" parent="FXZ0acjRom5HCQV_QIXH-135" vertex="1">
          <mxGeometry x="336" y="161" width="16" height="255" as="geometry" />
        </mxCell>
        <mxCell id="lfd4ERR9KzfVwueqH8c_-1" value="" style="rounded=0;whiteSpace=wrap;html=1;fillColor=none;" parent="FXZ0acjRom5HCQV_QIXH-135" vertex="1">
          <mxGeometry x="576" y="161" width="16" height="255" as="geometry" />
        </mxCell>
        <mxCell id="lfd4ERR9KzfVwueqH8c_-2" value="" style="endArrow=none;html=1;rounded=0;" parent="FXZ0acjRom5HCQV_QIXH-135" edge="1">
          <mxGeometry width="50" height="50" relative="1" as="geometry">
            <mxPoint x="352" y="192" as="sourcePoint" />
            <mxPoint x="576" y="191" as="targetPoint" />
          </mxGeometry>
        </mxCell>
        <mxCell id="lfd4ERR9KzfVwueqH8c_-3" value="" style="endArrow=none;html=1;rounded=0;exitX=0.97;exitY=0.126;exitDx=0;exitDy=0;exitPerimeter=0;entryX=0.005;entryY=0.871;entryDx=0;entryDy=0;entryPerimeter=0;" parent="FXZ0acjRom5HCQV_QIXH-135" target="lfd4ERR9KzfVwueqH8c_-1" edge="1">
          <mxGeometry width="50" height="50" relative="1" as="geometry">
            <mxPoint x="352.34999999999997" y="383.78999999999996" as="sourcePoint" />
            <mxPoint x="575.998" y="382.0049999999999" as="targetPoint" />
          </mxGeometry>
        </mxCell>
        <mxCell id="kQFqJ6h-8vntmlTX7SXp-1" value="" style="endArrow=none;html=1;rounded=0;exitX=1;exitY=0.5;exitDx=0;exitDy=0;entryX=0;entryY=0.5;entryDx=0;entryDy=0;" parent="FXZ0acjRom5HCQV_QIXH-135" edge="1">
          <mxGeometry width="50" height="50" relative="1" as="geometry">
            <mxPoint x="378.3301270189222" y="337.5" as="sourcePoint" />
            <mxPoint x="395.6698729810778" y="327.5" as="targetPoint" />
          </mxGeometry>
        </mxCell>
        <mxCell id="kQFqJ6h-8vntmlTX7SXp-2" value="" style="endArrow=none;html=1;rounded=0;exitX=1;exitY=0.5;exitDx=0;exitDy=0;entryX=0;entryY=0.5;entryDx=0;entryDy=0;" parent="FXZ0acjRom5HCQV_QIXH-135" edge="1">
          <mxGeometry width="50" height="50" relative="1" as="geometry">
            <mxPoint x="404.3301270189222" y="322.5" as="sourcePoint" />
            <mxPoint x="421.6698729810778" y="312.5" as="targetPoint" />
          </mxGeometry>
        </mxCell>
        <mxCell id="kQFqJ6h-8vntmlTX7SXp-3" value="" style="endArrow=none;html=1;rounded=0;exitX=1;exitY=0.5;exitDx=0;exitDy=0;entryX=0;entryY=0.5;entryDx=0;entryDy=0;" parent="FXZ0acjRom5HCQV_QIXH-135" edge="1">
          <mxGeometry width="50" height="50" relative="1" as="geometry">
            <mxPoint x="430.3301270189222" y="307.5" as="sourcePoint" />
            <mxPoint x="447.6698729810778" y="297.5" as="targetPoint" />
          </mxGeometry>
        </mxCell>
        <mxCell id="kQFqJ6h-8vntmlTX7SXp-4" value="" style="endArrow=none;html=1;rounded=0;exitX=1;exitY=0.5;exitDx=0;exitDy=0;entryX=0;entryY=0.5;entryDx=0;entryDy=0;" parent="FXZ0acjRom5HCQV_QIXH-135" edge="1">
          <mxGeometry width="50" height="50" relative="1" as="geometry">
            <mxPoint x="456.3301270189222" y="292.5" as="sourcePoint" />
            <mxPoint x="473.6698729810778" y="282.5" as="targetPoint" />
          </mxGeometry>
        </mxCell>
        <mxCell id="kQFqJ6h-8vntmlTX7SXp-5" value="" style="endArrow=none;html=1;rounded=0;exitX=1;exitY=0.5;exitDx=0;exitDy=0;entryX=0;entryY=0.5;entryDx=0;entryDy=0;" parent="FXZ0acjRom5HCQV_QIXH-135" edge="1">
          <mxGeometry width="50" height="50" relative="1" as="geometry">
            <mxPoint x="482.3301270189222" y="277.5" as="sourcePoint" />
            <mxPoint x="499.6698729810778" y="267.5" as="targetPoint" />
          </mxGeometry>
        </mxCell>
        <mxCell id="kQFqJ6h-8vntmlTX7SXp-6" value="" style="endArrow=none;html=1;rounded=0;entryX=0;entryY=0.5;entryDx=0;entryDy=0;exitX=1;exitY=0.5;exitDx=0;exitDy=0;" parent="FXZ0acjRom5HCQV_QIXH-135" edge="1">
          <mxGeometry width="50" height="50" relative="1" as="geometry">
            <mxPoint x="508.3301270189222" y="262.5" as="sourcePoint" />
            <mxPoint x="523.6698729810778" y="253.5" as="targetPoint" />
          </mxGeometry>
        </mxCell>
        <mxCell id="kQFqJ6h-8vntmlTX7SXp-7" value="" style="endArrow=none;html=1;rounded=0;entryX=0;entryY=0.5;entryDx=0;entryDy=0;exitX=1;exitY=0.5;exitDx=0;exitDy=0;" parent="FXZ0acjRom5HCQV_QIXH-135" edge="1">
          <mxGeometry width="50" height="50" relative="1" as="geometry">
            <mxPoint x="532.3301270189222" y="248.5" as="sourcePoint" />
            <mxPoint x="549.6698729810778" y="238.5" as="targetPoint" />
          </mxGeometry>
        </mxCell>
        <mxCell id="kQFqJ6h-8vntmlTX7SXp-8" value="" style="endArrow=none;html=1;rounded=0;entryX=0;entryY=0.5;entryDx=0;entryDy=0;exitX=1;exitY=0.5;exitDx=0;exitDy=0;" parent="FXZ0acjRom5HCQV_QIXH-135" edge="1">
          <mxGeometry width="50" height="50" relative="1" as="geometry">
            <mxPoint x="558.3301270189222" y="233.5" as="sourcePoint" />
            <mxPoint x="575.6698729810778" y="223.5" as="targetPoint" />
          </mxGeometry>
        </mxCell>
        <mxCell id="kQFqJ6h-8vntmlTX7SXp-0" value="" style="endArrow=none;html=1;rounded=0;exitX=1;exitY=0.5;exitDx=0;exitDy=0;entryX=0;entryY=0.5;entryDx=0;entryDy=0;" parent="FXZ0acjRom5HCQV_QIXH-135" edge="1">
          <mxGeometry width="50" height="50" relative="1" as="geometry">
            <mxPoint x="352.3301270189222" y="352.5" as="sourcePoint" />
            <mxPoint x="369.6698729810778" y="342.5" as="targetPoint" />
          </mxGeometry>
        </mxCell>
        <mxCell id="kQFqJ6h-8vntmlTX7SXp-26" value="" style="endArrow=none;html=1;rounded=0;exitX=1;exitY=0.5;exitDx=0;exitDy=0;entryX=0;entryY=0.5;entryDx=0;entryDy=0;" parent="FXZ0acjRom5HCQV_QIXH-135" edge="1">
          <mxGeometry width="50" height="50" relative="1" as="geometry">
            <mxPoint x="378.3301270189222" y="238.5" as="sourcePoint" />
            <mxPoint x="395.6698729810778" y="248.5" as="targetPoint" />
          </mxGeometry>
        </mxCell>
        <mxCell id="kQFqJ6h-8vntmlTX7SXp-28" value="" style="endArrow=none;html=1;rounded=0;exitX=1;exitY=0.5;exitDx=0;exitDy=0;entryX=0;entryY=0.5;entryDx=0;entryDy=0;" parent="FXZ0acjRom5HCQV_QIXH-135" edge="1">
          <mxGeometry width="50" height="50" relative="1" as="geometry">
            <mxPoint x="404.3301270189223" y="253.5" as="sourcePoint" />
            <mxPoint x="421.6698729810778" y="263.5" as="targetPoint" />
          </mxGeometry>
        </mxCell>
        <mxCell id="kQFqJ6h-8vntmlTX7SXp-30" value="" style="endArrow=none;html=1;rounded=0;exitX=1;exitY=0.5;exitDx=0;exitDy=0;entryX=0;entryY=0.5;entryDx=0;entryDy=0;" parent="FXZ0acjRom5HCQV_QIXH-135" edge="1">
          <mxGeometry width="50" height="50" relative="1" as="geometry">
            <mxPoint x="430.3301270189222" y="268.5" as="sourcePoint" />
            <mxPoint x="447.6698729810777" y="278.5" as="targetPoint" />
          </mxGeometry>
        </mxCell>
        <mxCell id="kQFqJ6h-8vntmlTX7SXp-32" value="" style="endArrow=none;html=1;rounded=0;exitX=1;exitY=0.5;exitDx=0;exitDy=0;entryX=0;entryY=0.5;entryDx=0;entryDy=0;" parent="FXZ0acjRom5HCQV_QIXH-135" edge="1">
          <mxGeometry width="50" height="50" relative="1" as="geometry">
            <mxPoint x="456.3301270189222" y="283.5" as="sourcePoint" />
            <mxPoint x="473.6698729810778" y="293.5" as="targetPoint" />
          </mxGeometry>
        </mxCell>
        <mxCell id="kQFqJ6h-8vntmlTX7SXp-34" value="" style="endArrow=none;html=1;rounded=0;exitX=1;exitY=0.5;exitDx=0;exitDy=0;entryX=0;entryY=0.5;entryDx=0;entryDy=0;" parent="FXZ0acjRom5HCQV_QIXH-135" edge="1">
          <mxGeometry width="50" height="50" relative="1" as="geometry">
            <mxPoint x="482.3301270189222" y="298.5" as="sourcePoint" />
            <mxPoint x="499.669872981078" y="308.5" as="targetPoint" />
          </mxGeometry>
        </mxCell>
        <mxCell id="kQFqJ6h-8vntmlTX7SXp-36" value="" style="endArrow=none;html=1;rounded=0;entryX=0;entryY=0.5;entryDx=0;entryDy=0;exitX=1;exitY=0.5;exitDx=0;exitDy=0;" parent="FXZ0acjRom5HCQV_QIXH-135" edge="1">
          <mxGeometry width="50" height="50" relative="1" as="geometry">
            <mxPoint x="508.3301270189222" y="313.5" as="sourcePoint" />
            <mxPoint x="523.6698729810778" y="322.5" as="targetPoint" />
          </mxGeometry>
        </mxCell>
        <mxCell id="kQFqJ6h-8vntmlTX7SXp-38" value="" style="endArrow=none;html=1;rounded=0;entryX=0;entryY=0.5;entryDx=0;entryDy=0;exitX=1;exitY=0.5;exitDx=0;exitDy=0;" parent="FXZ0acjRom5HCQV_QIXH-135" edge="1">
          <mxGeometry width="50" height="50" relative="1" as="geometry">
            <mxPoint x="532.330127018922" y="327.5" as="sourcePoint" />
            <mxPoint x="549.669872981078" y="337.5" as="targetPoint" />
          </mxGeometry>
        </mxCell>
        <mxCell id="kQFqJ6h-8vntmlTX7SXp-40" value="" style="endArrow=none;html=1;rounded=0;entryX=0;entryY=0.5;entryDx=0;entryDy=0;exitX=1;exitY=0.5;exitDx=0;exitDy=0;" parent="FXZ0acjRom5HCQV_QIXH-135" edge="1">
          <mxGeometry width="50" height="50" relative="1" as="geometry">
            <mxPoint x="558.3301270189222" y="342.5" as="sourcePoint" />
            <mxPoint x="575.669872981078" y="352.5" as="targetPoint" />
          </mxGeometry>
        </mxCell>
        <mxCell id="kQFqJ6h-8vntmlTX7SXp-42" value="" style="endArrow=none;html=1;rounded=0;exitX=1;exitY=0.5;exitDx=0;exitDy=0;entryX=0;entryY=0.5;entryDx=0;entryDy=0;" parent="FXZ0acjRom5HCQV_QIXH-135" edge="1">
          <mxGeometry width="50" height="50" relative="1" as="geometry">
            <mxPoint x="352.3301270189222" y="223.5" as="sourcePoint" />
            <mxPoint x="369.6698729810778" y="233.5" as="targetPoint" />
          </mxGeometry>
        </mxCell>
        <mxCell id="FXZ0acjRom5HCQV_QIXH-124" value="Connection" style="locked=1;" parent="FXZ0acjRom5HCQV_QIXH-0" />
        <object label="Connection" PipingConnector="Y" LabelConnector="N" SignalConnector="N" Direction="0" AuxiliaryConnector="N" id="FXZ0acjRom5HCQV_QIXH-125">
          <mxCell style="vsdxID=1407;fillColor=none;gradientColor=none;shape=stencil(rVFbDsIgEDwNnyQU4glqvcfGblsilmZBS28vZGMsxg9j/JvZmX1kR5g2TLCg0CpE8hdcbR8nYY5CaztPSDZmJEwnTDt4wpH8be6ZL1CcBV39vUxI3KdKh1YbswPTEzuBzlmiVGmKau9zUKM+jlJJQrJBko8QrZ+rrQ5oRJnXyMHBWElhRVx25ebnw/5zVvPFWRm83jxY5zilvf4eSy5xpKZ7AA==);strokeColor=#00FF00;strokeWidth=1;points=[[0.5,0.5,0,0,0]];labelBackgroundColor=none;rounded=0;html=1;whiteSpace=wrap;aspect=fixed;noLabel=1;snapToPoint=1;container=0;fontSize=16;" parent="FXZ0acjRom5HCQV_QIXH-124" vertex="1">
            <mxGeometry x="586" y="218" width="12" height="12" as="geometry" />
          </mxCell>
        </object>
        <object label="Connection" PipingConnector="Y" LabelConnector="N" SignalConnector="N" Direction="180" AuxiliaryConnector="N" id="FXZ0acjRom5HCQV_QIXH-126">
          <mxCell style="vsdxID=1407;fillColor=none;gradientColor=none;shape=stencil(rVFbDsIgEDwNnyQU4glqvcfGblsilmZBS28vZGMsxg9j/JvZmX1kR5g2TLCg0CpE8hdcbR8nYY5CaztPSDZmJEwnTDt4wpH8be6ZL1CcBV39vUxI3KdKh1YbswPTEzuBzlmiVGmKau9zUKM+jlJJQrJBko8QrZ+rrQ5oRJnXyMHBWElhRVx25ebnw/5zVvPFWRm83jxY5zilvf4eSy5xpKZ7AA==);strokeColor=#00FF00;strokeWidth=1;points=[[0.5,0.5,0,0,0]];labelBackgroundColor=none;rounded=0;html=1;whiteSpace=wrap;aspect=fixed;noLabel=1;snapToPoint=1;container=0;fontSize=16;" parent="FXZ0acjRom5HCQV_QIXH-124" vertex="1">
            <mxGeometry x="330" y="218" width="12" height="12" as="geometry" />
          </mxCell>
        </object>
        <object label="Connection" PipingConnector="Y" LabelConnector="N" SignalConnector="N" Direction="0" AuxiliaryConnector="N" id="lfd4ERR9KzfVwueqH8c_-7">
          <mxCell style="vsdxID=1407;fillColor=none;gradientColor=none;shape=stencil(rVFbDsIgEDwNnyQU4glqvcfGblsilmZBS28vZGMsxg9j/JvZmX1kR5g2TLCg0CpE8hdcbR8nYY5CaztPSDZmJEwnTDt4wpH8be6ZL1CcBV39vUxI3KdKh1YbswPTEzuBzlmiVGmKau9zUKM+jlJJQrJBko8QrZ+rrQ5oRJnXyMHBWElhRVx25ebnw/5zVvPFWRm83jxY5zilvf4eSy5xpKZ7AA==);strokeColor=#00FF00;strokeWidth=1;points=[[0.5,0.5,0,0,0]];labelBackgroundColor=none;rounded=0;html=1;whiteSpace=wrap;aspect=fixed;noLabel=1;snapToPoint=1;container=0;fontSize=16;" parent="FXZ0acjRom5HCQV_QIXH-124" vertex="1">
            <mxGeometry x="586" y="346" width="12" height="12" as="geometry" />
          </mxCell>
        </object>
        <object label="Connection" PipingConnector="Y" LabelConnector="N" SignalConnector="N" Direction="180" AuxiliaryConnector="N" id="lfd4ERR9KzfVwueqH8c_-8">
          <mxCell style="vsdxID=1407;fillColor=none;gradientColor=none;shape=stencil(rVFbDsIgEDwNnyQU4glqvcfGblsilmZBS28vZGMsxg9j/JvZmX1kR5g2TLCg0CpE8hdcbR8nYY5CaztPSDZmJEwnTDt4wpH8be6ZL1CcBV39vUxI3KdKh1YbswPTEzuBzlmiVGmKau9zUKM+jlJJQrJBko8QrZ+rrQ5oRJnXyMHBWElhRVx25ebnw/5zVvPFWRm83jxY5zilvf4eSy5xpKZ7AA==);strokeColor=#00FF00;strokeWidth=1;points=[[0.5,0.5,0,0,0]];labelBackgroundColor=none;rounded=0;html=1;whiteSpace=wrap;aspect=fixed;noLabel=1;snapToPoint=1;container=0;fontSize=16;" parent="FXZ0acjRom5HCQV_QIXH-124" vertex="1">
            <mxGeometry x="330" y="346" width="12" height="12" as="geometry" />
          </mxCell>
        </object>
        <mxCell id="FXZ0acjRom5HCQV_QIXH-133" value="Origo" style="locked=1;" parent="FXZ0acjRom5HCQV_QIXH-0" />
        <object label="origo" id="FXZ0acjRom5HCQV_QIXH-134">
          <mxCell style="vsdxID=1407;fillColor=none;gradientColor=none;shape=stencil(rVFbDsIgEDwNnyQU4glqvcfGblsilmZBS28vZGMsxg9j/JvZmX1kR5g2TLCg0CpE8hdcbR8nYY5CaztPSDZmJEwnTDt4wpH8be6ZL1CcBV39vUxI3KdKh1YbswPTEzuBzlmiVGmKau9zUKM+jlJJQrJBko8QrZ+rrQ5oRJnXyMHBWElhRVx25ebnw/5zVvPFWRm83jxY5zilvf4eSy5xpKZ7AA==);strokeColor=#ff0000;strokeWidth=1;points=[[0.5,0.5,0,0,0]];labelBackgroundColor=none;rounded=0;html=1;whiteSpace=wrap;aspect=fixed;noLabel=1;snapToPoint=1;" parent="FXZ0acjRom5HCQV_QIXH-133" vertex="1">
            <mxGeometry x="460" y="284" width="7.874" height="7.87" as="geometry" />
          </mxCell>
        </object>
      </root>
    </mxGraphModel>
  </diagram>
</mxfile>
